<svg width="24" height="24" viewBox="0 0 24 24" xmlns="http://www.w3.org/2000/svg">
<g clip-path="url(#clip0_5_24311)">
<path fill-rule="evenodd" clip-rule="evenodd" d="M19.8002 16C19.8018 17.4047 19.4427 18.785 18.7591 20.0022C18.0756 21.2194 17.0915 22.2306 15.906 22.934C14.7205 23.6374 13.3754 24.0082 12.0058 24.0092C10.6362 24.0102 9.2906 23.6413 8.10412 22.9397C6.91765 22.2381 5.93214 21.2284 5.24684 20.0122C4.56155 18.796 4.20059 17.4162 4.2002 16.0115C4.1998 14.6068 4.55997 13.2268 5.24458 12.0102C5.9292 10.7936 6.91412 9.78334 8.1002 9.08099V4C8.1002 2.93913 8.51114 1.92172 9.24254 1.17157C9.97393 0.421424 10.9659 0 12.0002 0C13.0345 0 14.0265 0.421424 14.7579 1.17157C15.4892 1.92172 15.9002 2.93913 15.9002 4V9.07999C17.0853 9.78082 18.0697 10.7893 18.7543 12.004C19.4389 13.2188 19.7996 14.5969 19.8002 16ZM8.1002 9.08099L8.22695 9.00201H8.1002V9.08099ZM12.0002 2.00201C11.483 2.00201 10.9871 2.21273 10.6214 2.5878C10.2557 2.96287 10.0502 3.47158 10.0502 4.00201V8.26199C11.3277 7.91132 12.6727 7.91132 13.9502 8.26199V4C13.9502 3.46957 13.7447 2.96086 13.379 2.58578C13.0133 2.21071 12.5174 2 12.0002 2V2.00201ZM15.9002 9.00201H15.7734L15.9002 9.08099V9V9.00201ZM12.0002 9.98901C10.8408 9.98862 9.70734 10.3409 8.74313 11.0012C7.77893 11.6616 7.02726 12.6004 6.5833 13.6989C6.13935 14.7974 6.02303 16.0063 6.24898 17.1727C6.47494 18.339 7.03306 19.4104 7.85276 20.2514C8.67245 21.0924 9.71682 21.6652 10.8539 21.8973C11.991 22.1295 13.1698 22.0105 14.241 21.5555C15.3122 21.1006 16.2278 20.33 16.872 19.3413C17.5162 18.3526 17.86 17.1902 17.86 16.001C17.8584 14.4072 17.2406 12.879 16.1422 11.7516C15.0437 10.6242 13.5542 9.98965 12.0002 9.987V9.98901ZM12.0002 18.002C11.7416 18.002 11.4936 17.8966 11.3107 17.7091C11.1279 17.5216 11.0252 17.2672 11.0252 17.002V15.002C11.0252 14.7368 11.1279 14.4824 11.3107 14.2949C11.4936 14.1074 11.7416 14.002 12.0002 14.002C12.2588 14.002 12.5068 14.1074 12.6897 14.2949C12.8725 14.4824 12.9752 14.7368 12.9752 15.002V17.002C12.9747 17.2669 12.8717 17.5207 12.689 17.7078C12.5062 17.8949 12.2584 18 12.0002 18V18.002Z" />
</g>
<defs>
<clipPath id="clip0_5_24311">
<rect width="15.6" height="24" fill="white" transform="translate(4.2002)"/>
</clipPath>
</defs>
</svg>
